<svg xmlns="http://www.w3.org/2000/svg" xmlns:xlink="http://www.w3.org/1999/xlink" preserveAspectRatio="xMidYMid" width="23" height="17" viewBox="0 0 23 17">
  <defs>
    <style>
      .cls-1 {
        fill: #f8f8f8;
      }

      .cls-2 {
        fill: #dedede;
      }

      .cls-2, .cls-3 {
        fill-rule: evenodd;
      }

      .cls-3 {
        fill: #767676;
      }
    </style>
  </defs>
  <g id="artboard-1">
    <rect width="23" height="17" rx="2" ry="2" class="cls-1"/>
    <path d="M2.000,0.000 L21.000,0.000 C22.105,0.000 23.000,0.895 23.000,2.000 L23.000,15.000 C23.000,16.105 22.105,17.000 21.000,17.000 L2.000,17.000 C0.895,17.000 -0.000,16.105 -0.000,15.000 L-0.000,2.000 C-0.000,0.895 0.895,0.000 2.000,0.000 ZM3.000,1.000 L20.000,1.000 C21.105,1.000 22.000,1.895 22.000,3.000 L22.000,14.000 C22.000,15.105 21.105,16.000 20.000,16.000 L3.000,16.000 C1.895,16.000 1.000,15.105 1.000,14.000 L1.000,3.000 C1.000,1.895 1.895,1.000 3.000,1.000 Z" class="cls-2"/>
    <path d="M18.486,8.548 L14.326,12.709 C14.266,12.768 14.198,12.798 14.120,12.798 C14.043,12.798 13.974,12.768 13.915,12.709 L13.469,12.262 C13.409,12.203 13.379,12.134 13.379,12.057 C13.379,11.979 13.409,11.911 13.469,11.851 L16.978,8.342 L13.469,4.834 C13.409,4.774 13.379,4.706 13.379,4.628 C13.379,4.551 13.409,4.482 13.469,4.423 L13.915,3.976 C13.974,3.917 14.043,3.887 14.120,3.887 C14.198,3.887 14.266,3.917 14.326,3.976 L18.486,8.137 C18.546,8.197 18.576,8.265 18.576,8.342 C18.576,8.420 18.546,8.488 18.486,8.548 ZM9.947,12.057 C9.947,12.134 9.917,12.203 9.858,12.262 L9.412,12.709 C9.352,12.768 9.284,12.798 9.206,12.798 C9.129,12.798 9.060,12.768 9.001,12.709 L4.840,8.548 C4.781,8.488 4.751,8.420 4.751,8.342 C4.751,8.265 4.781,8.197 4.840,8.137 L9.001,3.976 C9.060,3.917 9.129,3.887 9.206,3.887 C9.284,3.887 9.352,3.917 9.412,3.976 L9.858,4.423 C9.917,4.482 9.947,4.551 9.947,4.628 C9.947,4.706 9.917,4.774 9.858,4.834 L6.349,8.342 L9.858,11.851 C9.917,11.911 9.947,11.979 9.947,12.057 Z" class="cls-3"/>
  </g>
</svg>
