<svg xmlns="http://www.w3.org/2000/svg" xmlns:xlink="http://www.w3.org/1999/xlink" preserveAspectRatio="xMidYMid" width="17" height="17" viewBox="0 0 17 17">
  <defs>
    <style>
      .cls-1 {
        fill: #f8f8f8;
      }

      .cls-2 {
        stroke: #dedede;
        stroke-width: 1px;
        fill: none;
      }

      .cls-3 {
        fill: #767676;
        fill-rule: evenodd;
      }
    </style>
  </defs>
  <g id="artboard-1">
    <circle cx="8.5" cy="8.5" r="8.5" class="cls-1"/>
    <circle cx="8.5" cy="8.5" r="8.5" class="cls-2"/>
    <path d="M9.507,8.185 C9.542,8.234 9.576,8.283 9.576,8.342 C9.576,8.402 9.542,8.452 9.507,8.500 L12.858,11.851 C12.917,11.911 12.947,11.979 12.947,12.057 C12.947,12.134 12.917,12.203 12.858,12.262 L12.412,12.709 C12.352,12.768 12.284,12.798 12.206,12.798 C12.129,12.798 12.060,12.768 12.001,12.709 L8.663,9.371 L5.326,12.709 C5.266,12.768 5.198,12.798 5.120,12.798 C5.043,12.798 4.974,12.768 4.915,12.709 L4.469,12.262 C4.409,12.203 4.379,12.134 4.379,12.057 C4.379,11.979 4.409,11.911 4.469,11.851 L7.820,8.500 C7.784,8.452 7.751,8.402 7.751,8.342 C7.751,8.283 7.784,8.234 7.820,8.185 L4.469,4.834 C4.409,4.774 4.379,4.706 4.379,4.628 C4.379,4.551 4.409,4.482 4.469,4.423 L4.915,3.976 C4.974,3.917 5.043,3.887 5.120,3.887 C5.198,3.887 5.266,3.917 5.326,3.976 L8.663,7.314 L12.001,3.976 C12.060,3.917 12.129,3.887 12.206,3.887 C12.284,3.887 12.352,3.917 12.412,3.976 L12.858,4.423 C12.917,4.482 12.947,4.551 12.947,4.628 C12.947,4.706 12.917,4.774 12.858,4.834 L9.507,8.185 Z" class="cls-3"/>
  </g>
</svg>
